<?xml version="1.0" encoding="UTF-8" standalone="no"?>
<!DOCTYPE svg PUBLIC "-//W3C//DTD SVG 1.1//EN" "http://www.w3.org/Graphics/SVG/1.1/DTD/svg11.dtd">
<svg width="100%" height="100%" viewBox="0 0 128 128" version="1.1" xmlns="http://www.w3.org/2000/svg" xmlns:xlink="http://www.w3.org/1999/xlink" xml:space="preserve" xmlns:serif="http://www.serif.com/" style="fill-rule:evenodd;clip-rule:evenodd;stroke-miterlimit:10;">
    <g transform="matrix(4,0,0,4,0,0)">
        <path d="M17,15L17,21C17,21.552 16.552,22 16,22C15.448,22 15,21.552 15,21L15,15C15,14.448 15.448,14 16,14C16.552,14 17,14.448 17,15Z" style="fill:white;"/>
    </g>
    <g transform="matrix(4,0,0,4,0,0)">
        <path d="M17,11C17,11.552 16.552,12 16,12C15.448,12 15,11.552 15,11C15,10.448 15.448,10 16,10C16.552,10 17,10.448 17,11Z" style="fill:white;"/>
    </g>
    <g transform="matrix(4,0,0,4,0,0)">
        <circle cx="16" cy="16" r="12" style="fill:none;stroke:white;stroke-width:2px;"/>
    </g>
</svg>
