<?xml version="1.0" encoding="UTF-8" standalone="no"?>
<!DOCTYPE svg PUBLIC "-//W3C//DTD SVG 1.1//EN" "http://www.w3.org/Graphics/SVG/1.1/DTD/svg11.dtd">
<svg width="100%" height="100%" viewBox="0 0 128 128" version="1.1" xmlns="http://www.w3.org/2000/svg" xmlns:xlink="http://www.w3.org/1999/xlink" xml:space="preserve" xmlns:serif="http://www.serif.com/" style="fill-rule:evenodd;clip-rule:evenodd;stroke-miterlimit:10;">
    <g transform="matrix(4,0,0,4,0,0)">
        <path d="M26,10L26,26L6,26L6,10" style="fill:white;fill-opacity:0;fill-rule:nonzero;stroke:white;stroke-width:2px;"/>
    </g>
    <g transform="matrix(4,0,0,4,0,0)">
        <path d="M27,8C27,9.104 26.104,10 25,10L7,10C5.896,10 5,9.104 5,8C5,6.896 5.896,6 7,6L25,6C26.104,6 27,6.896 27,8Z" style="fill:none;stroke:white;stroke-width:2px;"/>
    </g>
    <g transform="matrix(4,0,0,4,0,0)">
        <path d="M13,14L19,14" style="fill:none;fill-rule:nonzero;stroke:white;stroke-width:2px;stroke-linecap:round;"/>
    </g>
</svg>
